<svg
  xmlns="http://www.w3.org/2000/svg"
  version="1.1"
  xlink="http://www.w3.org/1999/xlink"
  svgjs="http://svgjs.com/svgjs"
  width="1440"
  height="560"
  preserveAspectRatio="none"
  viewBox="0 0 1440 560"
>
  <g mask='url("#SvgjsMask1001")' fill="none">
    <rect
      width="1440"
      height="560"
      x="0"
      y="0"
      fill="rgba(27, 27, 27, 1)"
    ></rect>
    <path
      d="M0,620.379C113.827,611.336,195.874,515.725,288.71,449.242C376.553,386.335,463.559,327.568,528.967,241.571C608.7,136.74,737.7,26.502,707.799,-101.766C677.286,-232.661,491.96,-249.539,393.225,-340.731C309.529,-418.033,276.084,-542.713,174.507,-594.315C64.294,-650.304,-73.444,-685.19,-186.526,-635.25C-298.421,-585.834,-323.099,-441.283,-395.411,-342.625C-460.37,-253.999,-554.78,-188.923,-589.962,-84.824C-629.306,31.591,-656.219,164.596,-604.506,276.069C-552.856,387.407,-426.427,436.841,-319.778,497.585C-218.51,555.264,-116.176,629.609,0,620.379"
      fill="#161616"
    ></path>
    <path
      d="M1440 1119.121C1541.831 1104.588 1600.829 1000.005 1691.2 950.875 1791.721 896.227 1942.276 914.658 1998.935 815.2570000000001 2054.911 717.0550000000001 1981.879 595.872 1956.317 485.765 1932.982 385.249 1932.065 269.262 1855.9940000000001 199.54000000000002 1781.278 131.06 1662.294 162.195 1566.661 128.63299999999998 1463.487 92.42500000000001 1383.44-9.58299999999997 1274.209-4.633000000000038 1158.328 0.6190000000000282 1032.34 55.72800000000001 973.2149999999999 155.529 914.561 254.53500000000003 993.057 379.503 978.973 493.714 965.318 604.443 860.764 703.076 892.505 810.033 924.404 917.5219999999999 1040.432 974.692 1138.069 1029.813 1231.354 1082.4769999999999 1333.95 1134.2559999999999 1440 1119.121"
      fill="#202020"
    ></path>
  </g>
  <defs>
    <mask id="SvgjsMask1001">
      <rect width="1440" height="560" fill="#ffffff"></rect>
    </mask>
  </defs>
</svg>
