<svg
  xmlns="http://www.w3.org/2000/svg"
  version="1.1"
  xmlns:xlink="http://www.w3.org/1999/xlink"
  xmlns:svgjs="http://svgjs.com/svgjs"
  width="1024"
  height="670"
  preserveAspectRatio="none"
  viewBox="0 0 1024 670"
>
  <g mask='url("#SvgjsMask1020")' fill="none">
    <rect
      width="1024"
      height="670"
      x="0"
      y="0"
      fill="rgb(27, 27, 34)"
    ></rect>
    <path
      d="M727.95-18.55C612.49 50.05 674.33 444.71 463.45 449.06 252.57 453.41 74.21 270.64-65.54 268.16"
      stroke="rgba(31, 31, 38, 1)"
      stroke-width="2"
    ></path>
    <path
      d="M527.92-56.74C412.41 42.2 491.26 491.29 288.82 502.66 86.38 514.03-61.6 324.75-189.38 321.76"
      stroke="rgb(31, 31, 38, 1)"
      stroke-width="2"
    ></path>
    <path
      d="M811.36-52.6C633.48 8.23 583.11 529.35 337.89 531.59 92.68 533.83 7.63 218.82-135.57 203.29"
      stroke="rgba(31, 31, 38, 1)"
      stroke-width="2"
    ></path>
    <path
      d="M481.14-87.11C393.91-33.52 441.86 267.67 283.2 271.38 124.53 275.09-8.22 139.18-112.69 137.38"
      stroke="rgba(31, 31, 38, 1)"
      stroke-width="2"
    ></path>
    <path
      d="M572.06-22.73C448.12 39.85 439.12 439.4 274.83 446.4 110.53 453.4 65.13 266.43-22.41 258.8"
      stroke="rgba(31, 31, 38, 1)"
      stroke-width="2"
    ></path>
  </g>
  <defs>
    <mask id="SvgjsMask1020">
      <rect width="1024" height="670" fill="#ffffff"></rect>
    </mask>
  </defs>
</svg>
