<?xml version="1.0" encoding="utf-8"?>
<!-- Generator: Adobe Illustrator 24.3.0, SVG Export Plug-In . SVG Version: 6.00 Build 0)  -->
<svg version="1.1" id="Layer_1" xmlns="http://www.w3.org/2000/svg" xmlns:xlink="http://www.w3.org/1999/xlink" x="0px" y="0px"
	 viewBox="0 0 950.3 606.5" style="enable-background:new 0 0 950.3 606.5;" xml:space="preserve">
<style type="text/css">
	.st0{opacity:0.4;fill:#23232C;}
	.st1{fill:#23232C;}
	.st2{fill:#2B2B33;}
	.st3{fill:#6746ED;}
	.st4{fill:#7B7B8F;}
</style>
<path class="st0" d="M885,596.4H223.5c-34,0-61.5-27.5-61.5-61.5V73c0-34,27.5-61.5,61.5-61.5H885c34,0,61.5,27.5,61.5,61.5v461.9
	C946.5,568.8,919,596.4,885,596.4z"/>
<g>
	<path class="st1" d="M566,286.5H78.4c-25.5,0-46.2-20.7-46.2-46.2v-89.2c0-25.5,20.7-46.2,46.2-46.2H566
		c25.5,0,46.2,20.7,46.2,46.2v89.2C612.2,265.8,591.5,286.5,566,286.5z"/>
	<path class="st2" d="M369,184.9H87.7c-8.4,0-15.3-6.8-15.3-15.3v0c0-8.4,6.8-15.3,15.3-15.3H369c8.4,0,15.3,6.8,15.3,15.3v0
		C384.2,178.1,377.4,184.9,369,184.9z"/>
	<path class="st2" d="M285.3,237.1H87.4c-8.3,0-15-6.7-15-15v-0.5c0-8.3,6.7-15,15-15h197.8c8.3,0,15,6.7,15,15v0.5
		C300.3,230.4,293.6,237.1,285.3,237.1z"/>
	<circle class="st3" cx="513.6" cy="195.7" r="54.4"/>
	<path class="st1" d="M637.9,502.8H150.3c-25.5,0-46.2-20.7-46.2-46.2v-89.2c0-25.5,20.7-46.2,46.2-46.2h487.6
		c25.5,0,46.2,20.7,46.2,46.2v89.2C684.1,482.2,663.4,502.8,637.9,502.8z"/>
	<path class="st2" d="M440.9,401.2H159.6c-8.4,0-15.3-6.8-15.3-15.3v0c0-8.4,6.8-15.3,15.3-15.3h281.3c8.4,0,15.3,6.8,15.3,15.3v0
		C456.2,394.4,449.3,401.2,440.9,401.2z"/>
	<path class="st2" d="M357.2,453.4H159.4c-8.3,0-15-6.7-15-15v-0.5c0-8.3,6.7-15,15-15h197.8c8.3,0,15,6.7,15,15v0.5
		C372.2,446.7,365.5,453.4,357.2,453.4z"/>
	<circle class="st4" cx="585.6" cy="412.1" r="54.4"/>
</g>
</svg>
